#N canvas 17 201 1396 588 10;
#X obj 25 186 inlet~ inL-\$1;
#X obj 135 186 inlet~ inR-\$1;
#X text 820 196 update row 5 only if active module;
#X obj 162 256 notein;
#X obj 336 409 multicycle 12;
#X obj 142 304 pack 0 0 0;
#X msg 397 507 selectpage \$1;
#X obj 397 528 s rackMsgs;
#X obj 731 113 t b l;
#X obj 939 43 r rackSavePreset;
#N canvas 119 225 803 448 presetDir 0;
#X obj 88 153 s rackMsgs;
#X obj 88 106 symbol \$1;
#X msg 88 128 getsetting currentPreset Defaut rackCurrentPreset-\$1
;
#X obj 88 181 r rackCurrentPreset;
#X obj 215 181 r rackCurrentPreset-\$1;
#X obj 87 215 symbol \$1;
#X obj 442 163 s rackMsgs;
#X obj 442 113 symbol \$1;
#X obj 204 50 r loadbang-\$1;
#X obj 442 186 r rackDataDir;
#X obj 535 189 r rackDataDir-\$1;
#X msg 442 138 getsetting dataDir ./data rackDataDir-\$1;
#X obj 441 219 symbol \$1;
#X obj 249 276 pack s s s;
#X obj 255 210 symbol \$1;
#X obj 205 76 t b b b;
#X obj 444 71 bng 15 250 50 0 empty empty empty 17 7 0 10 -262144 -1
-1;
#X obj 71 67 bng 15 250 50 0 empty empty empty 17 7 0 10 -262144 -1
-1;
#X obj 114 243 t b b s;
#X obj 255 232 t b s;
#X obj 111 387 outlet;
#X obj 219 386 outlet;
#X text 81 25 track preset directory and bang on change;
#X connect 1 0 2 0;
#X connect 2 0 0 0;
#X connect 3 0 5 0;
#X connect 4 0 5 0;
#X connect 5 0 18 0;
#X connect 7 0 11 0;
#X connect 8 0 15 0;
#X connect 9 0 12 0;
#X connect 10 0 12 0;
#X connect 11 0 6 0;
#X connect 12 0 13 0;
#X connect 13 0 21 0;
#X connect 14 0 19 0;
#X connect 15 0 1 0;
#X connect 15 1 14 0;
#X connect 15 2 7 0;
#X connect 16 0 7 0;
#X connect 17 0 1 0;
#X connect 18 0 20 0;
#X connect 18 1 13 0;
#X connect 18 2 13 1;
#X connect 19 0 13 0;
#X connect 19 1 13 2;
#X restore 738 54 pd presetDir;
#N canvas 103 262 721 484 savePreset 0;
#X obj 343 124 r saveState;
#X obj 252 232 list;
#X obj 146 127 unpack s s s;
#X obj 251 167 pack s s s;
#X obj 272 127 symbol \$1;
#X obj 113 96 list;
#X obj 233 101 t b b a b;
#X obj 106 54 inlet;
#X obj 258 286 outlet;
#X obj 229 39 inlet;
#X connect 0 0 1 0;
#X connect 1 0 8 0;
#X connect 2 0 3 0;
#X connect 2 2 3 2;
#X connect 3 0 1 1;
#X connect 4 0 3 1;
#X connect 5 0 2 0;
#X connect 6 0 1 0;
#X connect 6 1 3 0;
#X connect 6 2 4 0;
#X connect 6 3 5 0;
#X connect 7 0 5 1;
#X connect 9 0 6 0;
#X restore 800 120 pd savePreset;
#X msg 642 176 load \$1/presets/\$2/\$3-midicyle.bin;
#X msg 796 155 save \$1/presets/\$2/\$3-midicyle.bin;
#X msg 447 234 tick \$1;
#X obj 360 458 s aux-label-\$1;
#N canvas 4 152 1366 725 params 0;
#X obj 116 52 r mc_beats-\$1;
#X msg 144 135 loop \$1;
#X obj 181 77 r mc_quantize-\$1;
#X msg 189 107 quantize \$1;
#X obj 37 141 r mc_overdub-\$1;
#X msg 48 166 overdub \$1;
#X obj 241 15 r mc_inchan-\$1;
#X msg 281 63 src \$1;
#X obj 184 255 outlet;
#X obj 429 7 chanparam \$1 0;
#X obj 529 6 chanparam \$1 1;
#X obj 619 4 chanparam \$1 2;
#X obj 712 4 chanparam \$1 3;
#X obj 428 28 chanparam \$1 4;
#X obj 525 26 chanparam \$1 5;
#X obj 618 26 chanparam \$1 6;
#X obj 711 26 chanparam \$1 7;
#X obj 429 52 chanparam \$1 8;
#X obj 522 51 chanparam \$1 9;
#X obj 620 50 chanparam \$1 10;
#X obj 712 49 chanparam \$1 11;
#X connect 0 0 1 0;
#X connect 1 0 8 0;
#X connect 2 0 3 0;
#X connect 3 0 8 0;
#X connect 4 0 5 0;
#X connect 5 0 8 0;
#X connect 6 0 7 0;
#X connect 7 0 8 0;
#X connect 9 0 8 0;
#X connect 10 0 8 0;
#X connect 11 0 8 0;
#X connect 12 0 8 0;
#X connect 13 0 8 0;
#X connect 14 0 8 0;
#X connect 15 0 8 0;
#X connect 16 0 8 0;
#X connect 17 0 8 0;
#X connect 18 0 8 0;
#X connect 19 0 8 0;
#X connect 20 0 8 0;
#X restore 123 363 pd params;
#N canvas 4 50 1366 725 note_aux 0;
#X obj 141 127 r auxIn-\$1;
#X obj 140 150 r expIn-\$1;
#X obj 114 224 r fsIn-\$1;
#X msg 214 339 key \$1 \$2;
#X msg 302 320 aux \$1;
#X obj 217 128 r onotes;
#X obj 448 85 r activeModule;
#X obj 448 111 route \$1;
#X msg 448 131 1;
#X msg 486 157 0;
#X obj 215 207 spigot 0;
#X obj 354 30 r oencbut;
#X obj 185 450 outlet;
#X obj 339 98 == 0;
#X obj 229 149 spigot 1;
#X obj 326 152 r oaux;
#X obj 306 254 spigot 0;
#X obj 310 218 spigot 1;
#X msg 76 339 fs \$1;
#X obj 326 397 bng 15 250 50 0 empty empty empty 17 7 0 10 -262144
-1 -1;
#X obj 517 245 r activePage;
#X obj 517 266 unpack s s;
#X obj 517 287 sel \$1;
#X msg 517 308 1;
#X msg 550 308 0;
#X obj 546 374 &&;
#X obj 528 451 tgl 15 0 empty empty empty 17 7 0 10 -262144 -1 -1 0
1;
#X obj 584 290 sel pg_main;
#X obj 215 228 spigot;
#X msg 584 311 1;
#X msg 651 314 0;
#X connect 2 0 18 0;
#X connect 3 0 12 0;
#X connect 4 0 12 0;
#X connect 5 0 14 0;
#X connect 6 0 7 0;
#X connect 7 0 8 0;
#X connect 7 1 9 0;
#X connect 8 0 10 1;
#X connect 8 0 16 1;
#X connect 9 0 10 1;
#X connect 9 0 16 1;
#X connect 10 0 28 0;
#X connect 11 0 13 0;
#X connect 13 0 14 1;
#X connect 13 0 17 1;
#X connect 14 0 10 0;
#X connect 15 0 17 0;
#X connect 16 0 4 0;
#X connect 17 0 16 0;
#X connect 18 0 12 0;
#X connect 20 0 21 0;
#X connect 21 0 22 0;
#X connect 21 1 27 0;
#X connect 22 0 23 0;
#X connect 22 1 24 0;
#X connect 23 0 25 0;
#X connect 24 0 25 0;
#X connect 25 0 26 0;
#X connect 26 0 28 1;
#X connect 27 0 29 0;
#X connect 27 1 30 0;
#X connect 28 0 3 0;
#X connect 29 0 25 1;
#X connect 30 0 25 1;
#X restore 130 389 pd note_aux;
#N canvas 4 50 1366 725 noteout 0;
#X obj 259 90 inlet;
#X obj 208 438 s notesOut-\$1;
#X obj 115 344 s notesIn-a1;
#X obj 114 368 s notesIn-a2;
#X obj 114 394 s notesIn-a3;
#X obj 203 341 s notesIn-b1;
#X obj 202 365 s notesIn-b2;
#X obj 202 391 s notesIn-b3;
#X obj 202 413 s notesIn-b4;
#X obj 303 349 s notesIn-c1;
#X obj 300 373 s notesIn-c2;
#X obj 301 399 s notesIn-c3;
#X obj 564 309 unpack 0 0 0;
#X obj 598 454 noteout;
#X text 610 395 todo: fix numbering?;
#X obj 652 347 - 10;
#X msg 214 161 \$1 \$2 \$3 0;
#X msg 556 275 \$2 \$3 \$1;
#X obj 200 281 route 1 2 3 4 5 6 7 8 9 10 11 12 13 14;
#X obj 393 341 s notesIn-d1;
#X obj 392 365 s notesIn-d2;
#X obj 392 391 s notesIn-d3;
#X obj 392 413 s notesIn-d4;
#X connect 0 0 16 0;
#X connect 12 0 13 0;
#X connect 12 1 13 1;
#X connect 12 2 15 0;
#X connect 15 0 13 2;
#X connect 16 0 18 0;
#X connect 17 0 12 0;
#X connect 18 0 2 0;
#X connect 18 1 3 0;
#X connect 18 2 4 0;
#X connect 18 3 5 0;
#X connect 18 4 6 0;
#X connect 18 5 7 0;
#X connect 18 6 8 0;
#X connect 18 7 9 0;
#X connect 18 8 10 0;
#X connect 18 9 11 0;
#X connect 18 10 19 0;
#X connect 18 11 20 0;
#X connect 18 12 21 0;
#X connect 18 13 22 0;
#X connect 18 14 17 0;
#X restore 237 457 pd noteout;
#X obj 252 202 s aux-led-\$1;
#X obj 258 150 sel 0 12;
#X msg 252 171 5, f 1;
#X msg 281 176 0, f 5;
#X obj 756 95 list;
#N canvas 4 50 1366 725 activepage 0;
#X obj 129 243 sel \$1;
#X obj 167 215 unpack s s;
#X obj 167 70 r activePage;
#X msg 119 295 1;
#X msg 155 273 0;
#X obj 167 93 t b a;
#X obj 178 168 list;
#X obj 168 190 t l l;
#X obj 32 244 unpack s s;
#X obj 101 397 spigot 0;
#X msg 113 469 activepage \$1;
#X obj 98 534 outlet;
#X obj 255 538 outlet;
#X obj 242 118 del 700;
#X symbolatom 54 333 10 0 0 0 - - -;
#X symbolatom 239 288 10 0 0 0 - - -;
#X connect 0 0 3 0;
#X connect 0 1 4 0;
#X connect 1 0 0 0;
#X connect 1 0 15 0;
#X connect 2 0 5 0;
#X connect 3 0 9 1;
#X connect 4 0 9 1;
#X connect 5 0 6 0;
#X connect 5 0 13 0;
#X connect 5 1 6 1;
#X connect 6 0 7 0;
#X connect 7 0 8 0;
#X connect 7 1 1 0;
#X connect 8 1 9 0;
#X connect 8 1 14 0;
#X connect 9 0 10 0;
#X connect 9 0 12 0;
#X connect 10 0 11 0;
#X connect 13 0 6 0;
#X restore 98 219 pd activepage;
#X msg 230 361 note \$3 \$1 \$2;
#X obj 88 573 outlet~ outL-\$1;
#X obj 197 573 outlet~ outR-\$1;
#X obj 167 63 symbol \$1;
#X msg 180 105 moduleid \$1;
#X obj 47 88 unpack s s;
#X obj 47 18 r activePage;
#X msg 47 109 activemodule \$1;
#X msg 326 318 knobraw 3 \$1;
#X msg 438 327 knobraw 4 \$1;
#X obj 326 280 r oknob3;
#X obj 439 289 r oknob4;
#X obj 451 150 r arm_mode-\$1;
#X msg 499 196 arm_mode \$1;
#X obj 163 500 clock \$1;
#X obj 535 231 r activePage;
#X obj 535 252 unpack s s;
#X obj 535 273 sel \$1;
#X msg 535 294 1;
#X msg 568 294 0;
#X obj 564 360 &&;
#X obj 534 399 tgl 15 0 empty empty empty 17 7 0 10 -262144 -1 -1 0
1;
#X obj 602 276 sel pg_main;
#X msg 601 297 1;
#X msg 671 300 0;
#X obj 142 325 spigot;
#X obj 762 287 r loadbang-\$1;
#X msg 798 371 1;
#X text 758 328 always running. mute incoming BPM to turn off in other
Modules;
#N canvas 4 50 1912 998 metro 0;
#X obj 217 164 tgl 15 0 empty empty empty 17 7 0 10 -262144 -1 -1 1
1;
#X floatatom 375 164 5 0 0 0 - - -;
#N canvas 285 582 292 294 mstobpm 0;
#X obj 45 13 inlet;
#X obj 46 145 timer;
#X obj 47 238 outlet;
#X obj 46 172 expr 60000 / $f1;
#X obj 46 108 t b b;
#X obj 45 78 sel 0;
#X text 97 55 time 16th notes;
#X obj 43 45 % 24;
#X obj 48 206 / 1;
#X connect 0 0 7 0;
#X connect 1 0 3 0;
#X connect 3 0 8 0;
#X connect 4 0 1 0;
#X connect 4 1 1 1;
#X connect 5 0 4 0;
#X connect 7 0 5 0;
#X connect 8 0 2 0;
#X restore 123 626 pd mstobpm;
#X floatatom 123 665 5 0 0 0 - - -;
#N canvas 79 314 902 691 mainmetro 0;
#X obj 254 49 inlet;
#X obj 443 49 inlet;
#X obj 280 156 metro 50;
#X obj 389 438 + 1, f 5;
#X obj 280 462 f;
#X floatatom 280 581 5 0 0 0 - - -;
#X obj 280 607 outlet;
#X msg 565 496 0;
#X obj 350 484 >= 23;
#X obj 350 516 sel 1;
#X obj 408 128 midirealtimein;
#X obj 280 387 spigot 1;
#X obj 408 388 spigot 0;
#X obj 423 300 tgl 15 0 empty empty empty 17 7 0 10 -262144 -1 -1 0
1;
#X obj 333 323 ==;
#X obj 333 349 tgl 15 0 empty empty empty 17 7 0 10 -262144 -1 -1 0
1;
#X obj 461 350 tgl 15 0 empty empty empty 17 7 0 10 -262144 -1 -1 0
1;
#X obj 580 243 delay 1000;
#X msg 423 241 1;
#X obj 408 190 t b b b b, f 25;
#X msg 580 218 stop;
#X msg 580 267 0;
#X text 67 12 autoswitch between internal and MIDI clock;
#X text 525 144 MIDI 248 = clock \; 250 = start \; 251 = continue.
;
#X obj 562 362 s midi-clock-present;
#X obj 266 90 t f b;
#X text 28 87 reset back to 0 when it starts;
#X text 356 587 24 pulses per quarter note output;
#X text 503 50 metro speed in ms;
#X text 298 48 start stop;
#N canvas 945 352 174 171 dialinbpm 0;
#X obj 29 41 inlet;
#X obj 29 72 expr 1000/($f1/60);
#X floatatom 29 121 5 0 0 0 - - -;
#X obj 29 96 / 24;
#X obj 30 150 outlet;
#X connect 0 0 1 0;
#X connect 1 0 3 0;
#X connect 2 0 4 0;
#X connect 3 0 2 0;
#X restore 397 95 pd dialinbpm;
#X floatatom 418 148 5 0 0 0 - - -;
#X obj 408 167 sel 248 251 252;
#X obj 637 396 delay 50;
#X msg 637 417 0;
#X obj 603 465 spigot 1;
#X msg 708 423 1;
#X obj 387 178 bng 15 250 50 0 empty empty empty 17 7 0 10 -262144
-1 -1;
#X connect 0 0 25 0;
#X connect 1 0 30 0;
#X connect 2 0 11 0;
#X connect 3 0 4 1;
#X connect 4 0 3 0;
#X connect 4 0 5 0;
#X connect 4 0 8 0;
#X connect 5 0 6 0;
#X connect 7 0 4 1;
#X connect 8 0 9 0;
#X connect 9 0 7 0;
#X connect 10 0 31 0;
#X connect 10 0 32 0;
#X connect 11 0 4 0;
#X connect 12 0 4 0;
#X connect 13 0 14 0;
#X connect 13 0 16 0;
#X connect 13 0 24 0;
#X connect 14 0 15 0;
#X connect 15 0 11 1;
#X connect 16 0 12 1;
#X connect 17 0 21 0;
#X connect 18 0 13 0;
#X connect 19 0 12 0;
#X connect 19 1 17 0;
#X connect 19 2 18 0;
#X connect 19 3 20 0;
#X connect 20 0 17 0;
#X connect 21 0 13 0;
#X connect 25 0 2 0;
#X connect 25 1 7 0;
#X connect 30 0 2 1;
#X connect 32 0 19 0;
#X connect 32 0 37 0;
#X connect 32 1 33 0;
#X connect 32 1 35 0;
#X connect 32 2 36 0;
#X connect 33 0 34 0;
#X connect 34 0 35 1;
#X connect 35 0 7 0;
#X connect 36 0 35 1;
#X restore 217 256 pd mainmetro;
#X obj 217 116 inlet;
#X obj 375 116 inlet;
#X obj 271 742 spigot 1;
#X obj 123 742 spigot 0;
#X obj 278 586 r midi-clock-present;
#X obj 278 630 ==;
#X obj 375 142 i;
#X obj 123 845 outlet;
#X obj 46 846 s bpm;
#X obj 269 845 outlet;
#N canvas 239 342 450 300 triplets 0;
#X obj 73 41 inlet;
#X obj 58 168 outlet;
#X obj 76 86 sel 0 8 16;
#X connect 0 0 2 0;
#X connect 2 0 1 0;
#X connect 2 1 1 0;
#X connect 2 2 1 0;
#X restore 1035 281 pd triplets;
#N canvas 4 50 1360 725 sixteenths 0;
#X obj 73 41 inlet;
#X obj 94 224 outlet;
#X obj 76 86 sel 0 6 12 18;
#X connect 0 0 2 0;
#X connect 2 0 1 0;
#X connect 2 1 1 0;
#X connect 2 2 1 0;
#X connect 2 3 1 0;
#X restore 1131 282 pd sixteenths;
#X obj 1035 308 s triplets;
#X obj 1131 309 s sixteenths;
#X obj 793 312 s quarters;
#X obj 913 311 s eighths;
#X text 46 560 if getting clock from MIDI \, measure the BPM;
#N canvas 236 394 450 300 quarters 0;
#X obj 73 41 inlet;
#X obj 73 75 sel 0;
#X obj 73 111 outlet;
#X connect 0 0 1 0;
#X connect 1 0 2 0;
#X restore 793 282 pd quarters;
#N canvas 4 50 1360 725 eighths 0;
#X obj 73 41 inlet;
#X obj 71 195 outlet;
#X obj 76 86 sel 0 12;
#X connect 0 0 2 0;
#X connect 2 0 1 0;
#X connect 2 1 1 0;
#X restore 913 282 pd eighths;
#X obj 696 268 s 24ppq;
#X obj 713 543 r 24ppq;
#X msg 713 621 248;
#X obj 713 663 midiout;
#X text 410 115 bpm input;
#X text 256 867 separate BPM midi \, LINK \, and internal for display
purposes;
#X obj 377 348 spigot 1;
#X obj 217 304 spigot 1;
#X obj 489 353 spigot 0;
#X obj 683 153 r link-session-present;
#X floatatom 683 187 5 0 0 0 - - -;
#X obj 422 271 == 0;
#X obj 574 742 spigot 0;
#X obj 574 845 outlet;
#X obj 619 451 r link-session-present;
#X obj 487 381 spigot 0;
#X obj 123 587 r master-ticks;
#X text 183 7 a MIDI and LINK enabled master metronome;
#X text 162 31 if a LINK session is present \, use that. otherwise
use internal or MIDI clock if present.;
#X obj 713 590 spigot 0;
#X obj 777 543 r c_midiout-\$1;
#X text 711 523 midi clock output;
#N canvas 0 50 450 250 (subpatch) 0;
#X array swing-\$1 4 float 3;
#A 0 0 0.28 0.64 0.2;
#X coords 0 1 4 -1 50 50 1 0 0;
#X restore 1139 401 graph;
#X obj 790 740 tabread4 swing-\$1;
#X obj 810 788 nbx 5 14 -1e+37 1e+37 0 0 empty empty empty 0 -8 0 10
-262144 -1 -1 0 256;
#X obj 788 691 nbx 5 14 -1e+37 1e+37 0 0 empty empty empty 0 -8 0 10
-262144 -1 -1 0 256;
#X obj 946 209 t a;
#X obj 971 88 t a a;
#X obj 978 171 pipe 0;
#X obj 1050 118 random 1024;
#X obj 1078 165 nbx 5 14 -1e+37 1e+37 0 0 empty empty empty 0 -8 0
10 -262144 -1 -1 0 256;
#X obj 1049 94 bng 15 250 50 0 empty empty empty 17 7 0 10 -262144
-1 -1;
#X obj 1205 137 clip 0 1;
#X obj 1193 259 nbx 5 14 -1e+37 1e+37 0 0 empty empty empty 0 -8 0
10 -262144 -1 -1 0 256;
#X obj 1193 112 +;
#X obj 1110 32 - 512;
#X obj 1122 49 / 512;
#X obj 1101 214 +;
#X obj 789 93 / 100;
#X obj 614 79 / 100;
#X obj 1153 182 hsl 64 15 0 1 0 0 empty empty empty -2 -8 0 10 -262144
-1 -1 0 1;
#X obj 1149 94 * 1;
#X obj 1011 84 % 6;
#X obj 1012 103 sel 0;
#X obj 1252 109 * 0.999;
#X obj 1196 89 * 0.025;
#X obj 1079 147 / 32;
#X obj 622 48 r c_jitter-\$1;
#X obj 770 57 r c_drift-\$1;
#X obj 1103 241 nbx 5 14 -1e+37 1e+37 0 0 empty empty empty 0 -8 0
10 -262144 -1 -1 0 256;
#X obj 1102 196 * 0;
#X obj 1231 233 * 0;
#X obj 1252 194 hsl 64 15 0 1 0 0 empty empty empty -2 -8 0 10 -262144
-1 -1 0 1;
#X obj 1212 38 / 100;
#X obj 1193 18 r c_driftrate-\$1;
#X obj 1220 65 * 0.1;
#X obj 1264 43 hsl 64 15 0 1 0 0 empty empty empty -2 -8 0 10 -262144
-1 -1 0 1;
#N canvas 8 60 1345 720 swing 0;
#X obj 450 146 r delay8-\$1;
#X obj 539 149 r delay16-\$1;
#X obj 88 31 inlet;
#X obj 162 339 outlet;
#X obj 246 202 pipe 0;
#X obj 297 203 pipe 0;
#X obj 359 202 pipe 0;
#X obj 75 63 sel 6 12 18, f 67;
#X msg 187 138 6, f 1;
#X msg 228 140 12, f 4;
#X msg 271 132 18, f 2;
#X connect 0 0 5 1;
#X connect 1 0 4 1;
#X connect 1 0 6 1;
#X connect 2 0 7 0;
#X connect 4 0 3 0;
#X connect 5 0 3 0;
#X connect 6 0 3 0;
#X connect 7 0 8 0;
#X connect 7 1 9 0;
#X connect 7 2 10 0;
#X connect 7 3 3 0;
#X connect 8 0 4 0;
#X connect 9 0 5 0;
#X connect 10 0 6 0;
#X restore 957 58 pd swing;
#X obj 487 413 s master-ticks-internal;
#X obj 926 28 r master-ticks-internal;
#X obj 274 453 bng 15 250 50 0 empty empty empty 17 7 0 10 -262144
-1 -1;
#X obj 217 352 s master-ticks-internal;
#X obj 1201 201 * 64;
#X obj 702 370 s master-ticks-\$1;
#X obj 864 431 f 0;
#X obj 893 432 + 1;
#X msg 882 395 0;
#X obj 864 452 % 4, f 12;
#X floatatom 864 473 5 0 0 0 - - -;
#X obj 864 493 + 1;
#X obj 864 514 s bar;
#X floatatom 937 419 5 0 0 0 - - -;
#X obj 937 352 r signature-\$1;
#X obj 910 499 bng 15 250 50 0 empty empty empty 17 7 0 10 -262144
-1 -1;
#X obj 884 541 sel 0;
#X obj 885 563 bng 15 250 50 0 empty empty empty 17 7 0 10 -262144
-1 -1;
#X obj 1090 624 r c_clickvol_l-\$1;
#X obj 1131 651 r c_clickvol_r-\$1;
#X obj 1195 819 t f f;
#X obj 1194 879 *;
#X obj 1193 767 / 100;
#X obj 1247 821 t f f;
#X obj 1246 881 *;
#X obj 1245 769 / 100;
#X obj 1052 941 *~;
#X obj 1152 927 *~;
#X obj 1054 985 throw~ ooutL;
#X obj 1147 985 throw~ ooutR;
#X msg 948 399 24;
#X msg 980 399 32;
#X msg 1014 399 48;
#X msg 1049 399 64;
#X obj 948 378 sel 17 18 19 20;
#X msg 955 449 Time Signature : \$1;
#X obj 955 470 s aux-label-\$1;
#X floatatom 438 329 5 0 0 0 - - -;
#X obj 882 374 r start;
#X obj 861 352 r reset;
#X obj 521 520 r master-ticks-internal;
#X floatatom 521 541 5 0 0 0 - - -;
#X obj 521 561 f;
#X obj 521 582 / 24;
#X obj 521 603 * 360;
#X floatatom 521 624 5 0 0 0 - - -;
#X obj 521 644 s beat-clock;
#X connect 0 0 4 0;
#X connect 0 0 32 1;
#X connect 1 0 30 0;
#X connect 1 0 4 1;
#X connect 2 0 3 0;
#X connect 3 0 8 0;
#X connect 4 0 31 0;
#X connect 5 0 0 0;
#X connect 6 0 11 0;
#X connect 7 0 13 0;
#X connect 7 0 14 0;
#X connect 8 0 13 0;
#X connect 8 0 12 0;
#X connect 9 0 8 1;
#X connect 9 0 10 0;
#X connect 10 0 7 1;
#X connect 11 0 1 0;
#X connect 15 0 17 0;
#X connect 16 0 18 0;
#X connect 22 0 19 0;
#X connect 23 0 20 0;
#X connect 26 0 27 0;
#X connect 30 0 7 0;
#X connect 31 0 84 0;
#X connect 31 0 85 0;
#X connect 32 0 39 0;
#X connect 33 0 34 0;
#X connect 34 0 35 0;
#X connect 34 0 39 1;
#X connect 35 0 30 1;
#X connect 35 0 31 1;
#X connect 35 0 119 0;
#X connect 36 0 13 0;
#X connect 36 0 37 0;
#X connect 38 0 36 1;
#X connect 39 0 82 0;
#X connect 40 0 2 0;
#X connect 43 0 26 0;
#X connect 44 0 43 1;
#X connect 47 0 48 0;
#X connect 49 0 47 0;
#X connect 50 0 22 0;
#X connect 50 0 23 0;
#X connect 50 0 15 0;
#X connect 50 0 16 0;
#X connect 50 0 24 0;
#X connect 50 0 87 0;
#X connect 51 0 52 0;
#X connect 51 1 66 0;
#X connect 52 0 50 0;
#X connect 53 0 59 0;
#X connect 53 0 70 0;
#X connect 54 0 74 0;
#X connect 55 0 53 0;
#X connect 56 0 68 0;
#X connect 56 0 86 0;
#X connect 57 0 61 1;
#X connect 58 0 56 0;
#X connect 59 0 60 0;
#X connect 60 0 65 0;
#X connect 61 0 52 1;
#X connect 61 0 73 0;
#X connect 62 0 75 1;
#X connect 63 0 74 1;
#X connect 64 0 74 1;
#X connect 65 0 69 0;
#X connect 66 0 67 0;
#X connect 67 0 55 0;
#X connect 68 0 58 1;
#X connect 69 0 58 0;
#X connect 70 0 54 0;
#X connect 71 0 63 0;
#X connect 72 0 62 0;
#X connect 74 0 61 0;
#X connect 75 0 57 0;
#X connect 76 0 75 1;
#X connect 77 0 79 0;
#X connect 78 0 77 0;
#X connect 79 0 69 1;
#X connect 80 0 79 0;
#X connect 81 0 51 0;
#X connect 86 0 75 0;
#X connect 88 0 89 0;
#X connect 88 0 91 0;
#X connect 89 0 88 1;
#X connect 90 0 88 1;
#X connect 91 0 92 0;
#X connect 92 0 93 0;
#X connect 92 0 97 0;
#X connect 92 0 98 0;
#X connect 93 0 94 0;
#X connect 95 0 91 1;
#X connect 95 0 117 0;
#X connect 96 0 95 0;
#X connect 96 0 116 0;
#X connect 98 0 99 0;
#X connect 100 0 104 0;
#X connect 101 0 107 0;
#X connect 102 0 103 0;
#X connect 102 1 103 1;
#X connect 103 0 108 1;
#X connect 104 0 102 0;
#X connect 105 0 106 0;
#X connect 105 1 106 1;
#X connect 106 0 109 1;
#X connect 107 0 105 0;
#X connect 108 0 110 0;
#X connect 109 0 111 0;
#X connect 112 0 95 0;
#X connect 113 0 95 0;
#X connect 114 0 95 0;
#X connect 115 0 95 0;
#X connect 116 0 112 0;
#X connect 116 1 113 0;
#X connect 116 2 114 0;
#X connect 116 3 115 0;
#X connect 117 0 118 0;
#X connect 120 0 90 0;
#X connect 121 0 90 0;
#X connect 122 0 123 0;
#X connect 123 0 124 0;
#X connect 124 0 125 0;
#X connect 125 0 126 0;
#X connect 126 0 127 0;
#X connect 127 0 128 0;
#X restore 800 447 pd metro;
#X obj 883 370 r c_bpm-\$1;
#X obj 888 307 r start;
#X obj 965 308 r stop;
#X msg 843 372 0;
#X obj 538 24 r loadbang-\$1;
#X obj 337 98 r multicycle-ticks-\$1;
#X floatatom 336 192 5 0 0 0 - - -;
#X connect 3 0 5 0;
#X connect 3 1 5 1;
#X connect 3 2 5 2;
#X connect 4 0 18 0;
#X connect 4 1 15 0;
#X connect 5 0 50 0;
#X connect 6 0 7 0;
#X connect 8 1 12 0;
#X connect 9 0 11 1;
#X connect 10 0 23 0;
#X connect 10 1 11 0;
#X connect 10 1 23 1;
#X connect 11 0 13 0;
#X connect 12 0 4 0;
#X connect 13 0 4 0;
#X connect 14 0 4 0;
#X connect 16 0 4 0;
#X connect 17 0 4 0;
#X connect 20 0 21 0;
#X connect 20 1 22 0;
#X connect 21 0 19 0;
#X connect 22 0 19 0;
#X connect 23 0 8 0;
#X connect 24 0 4 0;
#X connect 25 0 4 0;
#X connect 28 0 29 0;
#X connect 29 0 4 0;
#X connect 30 0 32 0;
#X connect 31 0 30 0;
#X connect 32 0 4 0;
#X connect 33 0 4 0;
#X connect 34 0 4 0;
#X connect 35 0 33 0;
#X connect 36 0 34 0;
#X connect 37 0 38 0;
#X connect 38 0 4 0;
#X connect 40 0 41 0;
#X connect 41 0 42 0;
#X connect 41 1 47 0;
#X connect 42 0 43 0;
#X connect 42 1 44 0;
#X connect 43 0 45 0;
#X connect 44 0 45 0;
#X connect 45 0 46 0;
#X connect 46 0 50 1;
#X connect 47 0 48 0;
#X connect 47 1 49 0;
#X connect 48 0 45 1;
#X connect 49 0 45 1;
#X connect 50 0 25 0;
#X connect 51 0 52 0;
#X connect 52 0 54 0;
#X connect 56 0 52 0;
#X connect 57 0 58 0;
#X connect 58 0 54 0;
#X connect 59 0 28 0;
#X connect 60 0 14 0;
#X connect 60 0 20 0;
#X connect 60 0 61 0;
